<svg xmlns="http://www.w3.org/2000/svg" viewBox="0 0 256 256" role="img" aria-label="Customer package preflight favicon">
  <rect width="256" height="256" rx="52" fill="#0f766e" />
  <path d="M58 74h140l18 24v84a20 20 0 0 1-20 20H60a20 20 0 0 1-20-20V94a20 20 0 0 1 18-20Z" fill="#ecfeff" />
  <path d="M58 74h140l18 24H78a20 20 0 0 1-20-20v-4Z" fill="#99f6e4" />
  <rect x="72" y="116" width="112" height="14" rx="7" fill="#14b8a6" />
  <rect x="72" y="146" width="78" height="14" rx="7" fill="#5eead4" />
  <circle cx="179" cy="164" r="34" fill="#1d4ed8" />
  <path d="M164 164l10 10 22-28" fill="none" stroke="#eff6ff" stroke-width="11" stroke-linecap="round" stroke-linejoin="round" />
</svg>
